<svg width="30" height="30" viewBox="0 0 30 30" fill="none" xmlns="http://www.w3.org/2000/svg">
<path d="M9 24C7.35 24 6 25.35 6 27C6 28.65 7.35 30 9 30C10.65 30 12 28.65 12 27C12 25.35 10.65 24 9 24ZM0 0V3H3L8.4 14.4L6.3 18C6.15 18.45 6 19.05 6 19.5C6 21.15 7.35 22.5 9 22.5H27V19.5H9.6C9.45 19.5 9.3 19.35 9.3 19.2V19.0499L10.65 16.4999H21.75C22.95 16.4999 23.85 15.8999 24.3 14.9999L29.7 5.25C30 4.95 30 4.8 30 4.5C30 3.6 29.4 3 28.5 3H6.3L4.95 0H0ZM24 24C22.35 24 21 25.35 21 27C21 28.65 22.35 30 24 30C25.65 30 27 28.65 27 27C27 25.35 25.65 24 24 24Z" fill="white"/>
</svg>
