<svg width="206" height="27" viewBox="0 0 206 27" fill="none" xmlns="http://www.w3.org/2000/svg">
<path fill-rule="evenodd" clip-rule="evenodd" d="M95.3443 26.28L91.0603 19.368L89.6923 20.88V26.28H82.8523V18H97.0137L102.58 26.28H95.3443ZM114.564 18C115.122 18.3129 115.695 18.6009 116.283 18.864C117.051 19.224 117.915 19.548 118.875 19.836C119.859 20.124 120.855 20.268 121.863 20.268C122.631 20.268 123.159 20.172 123.447 19.98C123.759 19.764 123.915 19.488 123.915 19.152C123.915 18.792 123.759 18.492 123.447 18.252C123.351 18.164 123.242 18.08 123.119 18H131.466C131.472 18.1528 131.475 18.3088 131.475 18.468C131.475 20.004 131.187 21.3 130.611 22.356C130.059 23.388 129.315 24.216 128.379 24.84C127.467 25.464 126.423 25.92 125.247 26.208C124.095 26.472 122.931 26.604 121.755 26.604C120.819 26.604 119.859 26.532 118.875 26.388C117.891 26.244 116.907 26.04 115.923 25.776C114.963 25.512 114.027 25.2 113.115 24.84C112.227 24.48 111.399 24.072 110.631 23.616L113.39 18H114.564ZM130.088 14H113.745C113.585 13.8607 113.435 13.718 113.295 13.572C112.767 12.996 112.371 12.348 112.107 11.628C111.867 10.908 111.747 10.08 111.747 9.144C111.747 7.728 111.999 6.48 112.503 5.4C113.031 4.32 113.739 3.42 114.627 2.7C115.515 1.98 116.523 1.44 117.651 1.08C118.803 0.696 120.015 0.504 121.287 0.504C122.223 0.504 123.135 0.6 124.023 0.792001C124.911 0.96 125.763 1.188 126.579 1.476C127.419 1.74 128.199 2.04 128.919 2.376C129.639 2.688 130.287 2.988 130.863 3.276L127.839 9.072C127.119 8.64 126.375 8.256 125.607 7.92C124.959 7.632 124.227 7.368 123.411 7.128C122.619 6.864 121.839 6.732 121.071 6.732C120.447 6.732 119.943 6.828 119.559 7.02C119.199 7.212 119.019 7.536 119.019 7.992C119.019 8.328 119.127 8.604 119.343 8.82C119.559 9.036 119.871 9.24 120.279 9.432C120.687 9.6 121.179 9.768 121.755 9.936C122.355 10.104 123.027 10.308 123.771 10.548C124.947 10.908 126.003 11.304 126.939 11.736C127.899 12.168 128.715 12.684 129.387 13.284C129.643 13.5035 129.877 13.7422 130.088 14ZM134.879 18V21.168C134.879 22.2 135.023 23.064 135.311 23.76C135.623 24.456 136.031 25.02 136.535 25.452C137.063 25.884 137.675 26.196 138.371 26.388C139.067 26.58 139.799 26.676 140.567 26.676C141.623 26.676 142.691 26.544 143.771 26.28C144.875 25.992 145.907 25.644 146.867 25.236L145.643 19.836C145.211 20.028 144.779 20.184 144.347 20.304C143.915 20.4 143.531 20.448 143.195 20.448C142.739 20.448 142.379 20.328 142.115 20.088C141.851 19.824 141.719 19.38 141.719 18.756V18H134.879ZM141.719 14H134.879V12.492H132.539V7.344H134.879V1.404H141.719V7.344H145.427V12.492H141.719V14ZM147.612 18C147.705 18.8749 147.9 19.7269 148.199 20.556C148.654 21.732 149.314 22.776 150.178 23.688C151.066 24.576 152.146 25.296 153.419 25.848C154.715 26.376 156.215 26.64 157.919 26.64C159.598 26.64 161.087 26.376 162.383 25.848C163.679 25.296 164.758 24.576 165.622 23.688C166.51 22.776 167.171 21.732 167.603 20.556C167.918 19.7269 168.124 18.8749 168.221 18H161.161C161.022 18.7218 160.745 19.3218 160.331 19.8C159.707 20.52 158.902 20.88 157.919 20.88C156.935 20.88 156.13 20.52 155.507 19.8C155.092 19.3218 154.815 18.7218 154.676 18H147.612ZM155.364 14H147.914C147.995 13.6976 148.09 13.3989 148.199 13.104C148.654 11.904 149.314 10.86 150.178 9.972C151.066 9.06 152.146 8.34 153.419 7.812C154.715 7.26 156.215 6.984 157.919 6.984C159.598 6.984 161.087 7.26 162.383 7.812C163.679 8.34 164.758 9.06 165.622 9.972C166.51 10.86 167.171 11.904 167.603 13.104C167.717 13.3989 167.817 13.6976 167.903 14H160.473C160.427 13.9396 160.38 13.8809 160.331 13.824C159.707 13.104 158.902 12.744 157.919 12.744C156.935 12.744 156.13 13.104 155.507 13.824C155.457 13.8809 155.41 13.9396 155.364 14ZM170.708 18V26.28H177.548V18H170.708ZM178.888 14H170.708V7.344H176.972V10.944C177.644 9.672 178.472 8.7 179.456 8.028C180.464 7.332 181.544 6.984 182.696 6.984C183.152 6.984 183.44 6.996 183.56 7.02V13.176C182.24 13.176 181.04 13.32 179.96 13.608C179.566 13.7131 179.208 13.8438 178.888 14ZM184.682 18C184.768 18.9339 184.982 19.8339 185.324 20.7C185.78 21.852 186.44 22.872 187.304 23.76C188.192 24.648 189.284 25.356 190.58 25.884C191.876 26.388 193.352 26.64 195.008 26.64C197.336 26.64 199.292 26.16 200.876 25.2C202.484 24.24 203.672 23.004 204.44 21.492L198.644 19.836C198.428 20.436 197.984 20.904 197.312 21.24C196.664 21.576 195.968 21.744 195.224 21.744C194.432 21.744 193.7 21.528 193.028 21.096C192.356 20.64 191.984 19.908 191.912 18.9H205.196C205.241 18.6313 205.275 18.3313 205.299 18H184.682ZM204.992 14C204.907 13.6976 204.807 13.3989 204.692 13.104C204.26 11.904 203.6 10.86 202.712 9.972C201.848 9.06 200.768 8.34 199.472 7.812C198.176 7.26 196.688 6.984 195.008 6.984C193.304 6.984 191.804 7.26 190.508 7.812C189.236 8.34 188.156 9.06 187.268 9.972C186.404 10.884 185.744 11.952 185.288 13.176C185.193 13.4471 185.108 13.7218 185.033 14H191.943C192.118 13.4543 192.396 12.9996 192.776 12.636C193.328 12.108 194.036 11.844 194.9 11.844C195.764 11.844 196.472 12.108 197.024 12.636C197.404 12.9996 197.682 13.4543 197.857 14H204.992ZM96.6943 14H89.9536L94.7323 7.344H101.932L96.6943 14ZM89.6923 14V0H82.8523V14H89.6923ZM79.0413 14C78.8513 11.8299 78.0501 10.1633 76.6375 9C75.0055 7.656 72.6775 6.984 69.6535 6.984C66.4615 6.984 63.6175 7.788 61.1215 9.396L63.1015 13.644C64.1095 12.972 65.0695 12.468 65.9815 12.132C66.8935 11.772 67.8895 11.592 68.9695 11.592C70.1215 11.592 70.9495 11.808 71.4535 12.24C71.937 12.6355 72.1991 13.2222 72.2399 14H79.0413ZM60.8331 18C60.4494 18.773 60.2575 19.625 60.2575 20.556C60.2575 21.42 60.4255 22.224 60.7615 22.968C61.0975 23.712 61.5535 24.36 62.1295 24.912C62.7295 25.44 63.4375 25.86 64.2535 26.172C65.0695 26.484 65.9455 26.64 66.8815 26.64C68.1295 26.64 69.3055 26.364 70.4095 25.812C71.5135 25.236 72.4855 24.408 73.3255 23.328L73.4695 24.012C73.6615 24.876 74.0695 25.536 74.6935 25.992C75.3415 26.424 76.2775 26.64 77.5015 26.64C77.8855 26.64 78.3175 26.604 78.7975 26.532C79.3015 26.484 79.8295 26.4 80.3815 26.28V20.52C79.9015 20.472 79.5655 20.328 79.3735 20.088C79.1815 19.824 79.0855 19.368 79.0855 18.72V18H71.2474C71.6012 18.082 71.9338 18.178 72.2455 18.288V19.692C72.2455 19.932 72.1615 20.172 71.9935 20.412C71.8255 20.628 71.6095 20.832 71.3455 21.024C71.0095 21.24 70.6255 21.42 70.1935 21.564C69.7615 21.684 69.3415 21.744 68.9335 21.744C68.2855 21.744 67.7455 21.576 67.3135 21.24C66.9055 20.904 66.7015 20.472 66.7015 19.944C66.7015 19.32 66.9775 18.804 67.5295 18.396C67.7536 18.2304 68.0014 18.0984 68.2729 18H60.8331ZM58.979 18C58.9551 18.3313 58.9208 18.6313 58.876 18.9H45.592C45.664 19.908 46.036 20.64 46.708 21.096C47.38 21.528 48.112 21.744 48.904 21.744C49.648 21.744 50.344 21.576 50.992 21.24C51.664 20.904 52.108 20.436 52.324 19.836L58.12 21.492C57.352 23.004 56.164 24.24 54.556 25.2C52.972 26.16 51.016 26.64 48.688 26.64C47.032 26.64 45.556 26.388 44.26 25.884C42.964 25.356 41.872 24.648 40.984 23.76C40.12 22.872 39.46 21.852 39.004 20.7C38.6612 19.8339 38.4473 18.9339 38.3622 18H58.979ZM58.6721 14C58.5864 13.6976 58.4864 13.3989 58.372 13.104C57.94 11.904 57.28 10.86 56.392 9.972C55.528 9.06 54.448 8.34 53.152 7.812C51.856 7.26 50.368 6.984 48.688 6.984C46.984 6.984 45.484 7.26 44.188 7.812C42.916 8.34 41.836 9.06 40.948 9.972C40.084 10.884 39.424 11.952 38.968 13.176C38.8723 13.4471 38.7872 13.7218 38.7127 14H45.6229C45.7982 13.4543 46.0759 12.9996 46.456 12.636C47.008 12.108 47.716 11.844 48.58 11.844C49.444 11.844 50.152 12.108 50.704 12.636C51.0842 12.9996 51.3619 13.4543 51.5371 14H58.6721ZM32.5674 14C32.888 13.8438 33.2454 13.7131 33.6395 13.608C34.7195 13.32 35.9195 13.176 37.2395 13.176V7.02C37.1195 6.996 36.8315 6.984 36.3755 6.984C35.2235 6.984 34.1435 7.332 33.1355 8.028C32.1515 8.7 31.3235 9.672 30.6515 10.944V7.344H24.3875V14H32.5674ZM24.3875 18V26.28H31.2275V18H24.3875ZM21.5902 18C21.6927 18.5318 21.744 19.1078 21.744 19.728C21.744 20.88 21.504 21.876 21.024 22.716C20.544 23.532 19.884 24.204 19.044 24.732C18.204 25.26 17.22 25.656 16.092 25.92C14.988 26.16 13.812 26.28 12.564 26.28H0V18H7.02V20.376H12.564C13.14 20.376 13.62 20.196 14.004 19.836C14.412 19.476 14.616 18.96 14.616 18.288C14.616 18.1893 14.6118 18.0933 14.6034 18H21.5902ZM18.8497 14C18.2994 13.6537 17.6802 13.3791 16.992 13.176C18.216 12.624 19.128 11.808 19.728 10.728C20.352 9.624 20.664 8.472 20.664 7.272C20.664 6.456 20.52 5.664 20.232 4.896C19.968 4.104 19.584 3.408 19.08 2.808C18.576 2.184 17.964 1.68 17.244 1.296C16.524 0.912 15.72 0.719999 14.832 0.719999H0V14H18.8497ZM7.02 10.62V6.696H12.024C12.48 6.696 12.876 6.852 13.212 7.164C13.548 7.452 13.716 7.944 13.716 8.64C13.716 9.432 13.512 9.96 13.104 10.224C12.72 10.488 12.288 10.62 11.808 10.62H7.02Z" fill="white"/>
</svg>
